<svg xmlns="http://www.w3.org/2000/svg" viewBox="0 0 83.617 50"><g transform="translate(62.971 37.654)"><g transform="translate(-62.971 -37.654)"><path d="M83.617,40.916c-.053.043-.121.064-.157.111-.259.333-.507.675-.768,1.007s-.555.676-.828,1.017c-.145.182-.276.375-.419.558-.175.223-.355.441-.536.659-.1.12-.214.228-.308.353-.251.333-.484.68-.742,1.007s-.536.62-.794.938c-.219.27-.421.553-.628.831-.009.012.007.06.008.06a3.385,3.385,0,0,0,.371-.04c.162-.032.321-.077.48-.121.274-.076.549-.153.821-.235s.531-.158.788-.257c.232-.09.453-.208.68-.311.192-.087.39-.162.576-.26.219-.115.429-.247.64-.376.091-.056.173-.125.261-.186a.043.043,0,0,1,.062.055,1.906,1.906,0,0,1-.16.216c-.325.353-.633.723-.985,1.048a8.7,8.7,0,0,1-1.027.792,12.157,12.157,0,0,1-1.152.69,4.7,4.7,0,0,1-.777.291,1.928,1.928,0,0,1-.561.119,1.2,1.2,0,0,1-.935-.342,1.378,1.378,0,0,1-.266-1.207,2.317,2.317,0,0,1,.323-.9c.284-.458.548-.928.871-1.367A11.5,11.5,0,0,1,79.7,43.645c.271-.264.564-.507.847-.759a.435.435,0,0,0,.049-.063.6.6,0,0,0-.074-.018.438.438,0,0,0-.082,0,1.417,1.417,0,0,1-1.048-.328.239.239,0,0,0-.337.012c-.323.253-.646.506-.966.762s-.614.5-.922.75c-.114.092-.228.184-.346.271-.417.311-.84.614-1.253.93-.357.272-.7.561-1.055.836-.308.239-.626.463-.933.7-.582.453-1.151.924-1.743,1.365a5.47,5.47,0,0,1-.928.557,2.117,2.117,0,0,1-.72.177,1.206,1.206,0,0,1-1.054-.494,1.011,1.011,0,0,1-.257-.789.851.851,0,0,0-.015-.177c-.047.031-.1.06-.141.094-.378.3-.749.6-1.135.884a3.236,3.236,0,0,1-.942.421,2.824,2.824,0,0,1-.686.064,1.438,1.438,0,0,1-.859-.227,1.835,1.835,0,0,1-.582-.428,1.307,1.307,0,0,1-.377-1.182c.013-.047-.019-.107-.031-.161a.4.4,0,0,1-.052.1c-.42.443-.843.882-1.262,1.325a2.743,2.743,0,0,1-.934.62,3.371,3.371,0,0,1-.712.191,2.365,2.365,0,0,1-.455,0,1.89,1.89,0,0,1-.986-.371,1.865,1.865,0,0,1-.685-.786,1.061,1.061,0,0,1-.035-.967c.205-.384.44-.754.67-1.124s.48-.76.731-1.132c.231-.343.485-.671.715-1.014.182-.272.338-.561.516-.836.14-.215.3-.419.446-.628.065-.091.134-.178.2-.27.007-.01-.01-.051-.015-.051a.123.123,0,0,0-.069.02c-.214.184-.431.363-.637.556q-.73.684-1.449,1.379c-.292.28-.574.571-.866.85-.513.491-1.03.977-1.545,1.465-.405.384-.808.771-1.216,1.152-.625.583-1.243,1.174-1.887,1.734a1.364,1.364,0,0,1-.828.338.914.914,0,0,1-.776-.364.668.668,0,0,1-.006-.754c.266-.464.553-.915.834-1.37.315-.51.63-1.019.951-1.525.2-.322.427-.633.626-.958.157-.256.278-.534.438-.788.2-.317.422-.619.632-.93.02-.03.014-.076.032-.109.039-.073.084-.142.127-.213a1.682,1.682,0,0,0-.238.162q-.729.7-1.451,1.407c-.631.615-1.257,1.236-1.891,1.847-.426.411-.868.806-1.294,1.217-.673.65-1.328,1.32-2.011,1.959a3.139,3.139,0,0,1-1.335.852A.878.878,0,0,1,47.6,49.8a.673.673,0,0,1-.263-.711,6.06,6.06,0,0,1,.532-1.174c.206-.446.452-.874.675-1.313.208-.41.409-.824.613-1.236q.2-.408.409-.813c.009-.017.048-.02.054-.037a.5.5,0,0,0,.02-.107.279.279,0,0,0-.1.031c-.239.2-.473.406-.714.6-.318.263-.641.521-.962.78-.2.158-.389.321-.592.47-.241.177-.494.336-.736.512s-.494.389-.752.567c-.3.206-.609.391-.911.59-.276.182-.543.377-.822.555q-.527.336-1.066.653c-.287.169-.579.331-.873.488a1.457,1.457,0,0,1-1.6-.32.877.877,0,0,1-.267-.7.342.342,0,0,0-.033-.119.9.9,0,0,1-.066.08,2.49,2.49,0,0,1-.768.583,2.279,2.279,0,0,1-.777.238,5.734,5.734,0,0,1-.68.07,4.181,4.181,0,0,1-1.008-.174,2.761,2.761,0,0,1-1.268-.8,2.094,2.094,0,0,1-.462-.767c-.006-.019-.028-.034-.043-.05a.405.405,0,0,0-.038.056c-.081.177-.163.354-.241.533a2.5,2.5,0,0,1-.938,1.044,3.562,3.562,0,0,1-1.421.6,3.335,3.335,0,0,1-1.9-.187,4.379,4.379,0,0,1-1.817-1.5,5.269,5.269,0,0,1-.413-.753,6.63,6.63,0,0,1-.322-.716,2.177,2.177,0,0,1-.086-.495c-.033-.294-.055-.59-.085-.884,0-.024-.028-.046-.043-.069-.026.019-.064.032-.075.058-.1.211-.189.425-.289.636a6.027,6.027,0,0,1-.329.652c-.232.365-.472.727-.736,1.068a4.694,4.694,0,0,1-.68.73c-.439.369-.908.7-1.367,1.048a.353.353,0,0,1-.112.035.615.615,0,0,1,.057-.1c.317-.374.663-.727.946-1.124a9.4,9.4,0,0,0,.667-1.164,14.736,14.736,0,0,0,.649-1.377c.172-.44.284-.9.414-1.359.089-.311.169-.625.245-.939.087-.36.163-.722.247-1.082.079-.341.17-.68.241-1.022.043-.21.054-.426.086-.639.037-.242.082-.483.121-.725.043-.269.078-.538.124-.806.049-.285.111-.567.161-.851.034-.192.057-.385.083-.578.055-.406.095-.815.168-1.218.06-.331.166-.653.239-.982.09-.407.159-.818.248-1.225q.171-.774.362-1.544c.2-.814.4-1.628.62-2.438.126-.469.285-.929.433-1.392.193-.607.376-1.218.588-1.818q.468-1.326.974-2.638.521-1.345,1.084-2.674c.223-.527.488-1.036.732-1.555.187-.4.359-.805.559-1.2.249-.489.521-.966.781-1.449.2-.376.4-.756.605-1.13.119-.216.255-.423.378-.637.175-.3.344-.612.52-.916.093-.16.2-.314.291-.472.044-.073.1-.129-.057-.169-.335-.087-.656-.226-.991-.313a4.224,4.224,0,0,0-.679-.087c-.121-.011-.245,0-.367,0a7.122,7.122,0,0,0-1.384.15A5.5,5.5,0,0,0,32,14.524a6.146,6.146,0,0,0-2.947,2.793,1.264,1.264,0,0,1-.311.45.9.9,0,0,1-1.1-.184,1.168,1.168,0,0,1-.25-.627,2.414,2.414,0,0,1,.257-1.262,5.887,5.887,0,0,1,1.416-2,6.5,6.5,0,0,1,1.79-1.217,5.1,5.1,0,0,1,1.649-.454,9.809,9.809,0,0,1,1.109-.073c.557.023,1.112.1,1.668.155.322.03.644.059.966.081.458.031.917.084,1.375.076a5.742,5.742,0,0,0,2.247-.484,3.8,3.8,0,0,0,1.348-1.032,2.4,2.4,0,0,0,.339-.6.192.192,0,0,0-.116-.272c-.79-.327-1.57-.678-2.365-.992-.685-.27-1.383-.507-2.078-.749-.262-.091-.54-.142-.8-.238a9.023,9.023,0,0,0-1.3-.369c-.4-.083-.779-.226-1.173-.317-.326-.075-.663-.105-.992-.17-.357-.07-.709-.161-1.066-.234-.2-.04-.4-.064-.6-.09-.337-.043-.674-.083-1.011-.123s-.687-.087-1.031-.121c-.589-.059-1.18-.11-1.769-.164-.047,0-.1,0-.143,0-1.2,0-2.4-.009-3.593,0-.615.006-1.23.039-1.844.082-.523.037-1.046.092-1.565.164-.459.063-.912.165-1.369.239-.245.04-.5.048-.741.087-.22.035-.437.093-.655.141-.149.033-.3.073-.448.1-.317.058-.638.1-.952.168-.272.059-.537.147-.805.222-.122.034-.245.066-.366.1-.189.054-.377.11-.565.163l-.732.2A38.585,38.585,0,0,0,9.614,9.333c-.538.212-1.056.473-1.58.718-.49.23-.985.452-1.462.707-.592.316-1.171.658-1.751,1-.4.231-.789.467-1.172.717s-.744.517-1.117.774c-.227.156-.457.307-.686.46-.116.078-.228.164-.35.231A.832.832,0,0,1,.55,13.78a1,1,0,0,1-.482-.691c0-.018-.031-.033-.057-.049C0,12.8,0,12.564,0,12.316c.027-.036.078-.061.078-.087a2.051,2.051,0,0,1,.356-.975A15.518,15.518,0,0,1,1.38,9.809,11.7,11.7,0,0,1,3.309,7.773c.21-.179.4-.382.617-.551.235-.184.49-.341.737-.51.436-.3.866-.6,1.311-.885.292-.185.6-.341.911-.5C7.5,5,8.118,4.67,8.745,4.363c.388-.19.8-.336,1.194-.51.426-.186.84-.4,1.273-.566.475-.184.967-.327,1.448-.5.362-.128.715-.279,1.079-.4.222-.075.459-.1.685-.171s.463-.167.7-.234.5-.111.745-.174c.159-.04.313-.1.47-.146.122-.036.244-.072.368-.1.3-.059.61-.1.911-.167.322-.071.639-.169.961-.239.2-.044.413-.051.618-.087s.426-.088.638-.134c.018,0,.033-.024.05-.026.261-.029.523-.046.782-.086.233-.036.463-.1.694-.147A.343.343,0,0,1,21.4.67c.288-.028.577-.047.864-.084.346-.045.69-.107,1.035-.161.013,0,.027,0,.041,0C23.7.4,24.062.375,24.425.342c.543-.05,1.084-.111,1.627-.16.162-.014.327,0,.49,0,.894-.026,1.793,0,2.68-.093A31.048,31.048,0,0,1,33.149.038c.75.018,1.5.034,2.253.061.527.019,1.053.05,1.579.081.384.023.767.053,1.15.081a6.709,6.709,0,0,1,1.045.093c.313.074.623.027.927.076a14.479,14.479,0,0,0,1.546.163c.442.023.881.1,1.321.157q.61.078,1.218.163.559.078,1.116.163c.338.052.676.107,1.014.163q.477.079.953.163c.3.053.6.1.892.165.342.074.681.163,1.022.242.131.031.264.056.4.078.192.032.385.055.577.088.17.029.34.065.509.1.212.046.425.09.634.144.177.046.35.108.526.157.123.034.248.062.373.085.165.031.332.053.5.083.126.023.251.048.374.082.262.072.521.157.784.225s.523.116.782.184.51.148.765.222c.122.035.243.073.366.1.242.057.489.1.727.167.321.092.634.211.954.307s.637.169.953.264c.217.065.425.156.64.227.2.065.4.116.6.18.222.071.441.151.662.225.185.062.372.121.557.182.281.093.562.188.844.28.222.072.449.13.667.213.322.122.636.266.958.39s.642.224.96.344.628.252.943.376c.169.067.34.127.508.194.238.1.475.195.713.292.3.121.595.234.887.363.224.1.436.223.659.323.3.137.615.257.919.393q.732.329,1.457.671c.6.283,1.213.557,1.806.862a1.8,1.8,0,0,1,.868.8.622.622,0,0,1-.043.678.7.7,0,0,1-.736.263,4.112,4.112,0,0,1-1.617-.878,22.181,22.181,0,0,0-3.712-2.127c-.377-.173-.76-.334-1.147-.484q-.667-.259-1.346-.487c-.229-.076-.471-.11-.7-.175-.255-.071-.505-.163-.762-.23-.174-.046-.356-.06-.532-.1-.2-.041-.4-.092-.6-.137-.162-.037-.323-.081-.487-.1-.26-.036-.522-.052-.782-.085-.373-.048-.746-.1-1.119-.157a1.366,1.366,0,0,0-.141-.006c-.805-.027-1.61-.07-2.416-.076-.506,0-1.013.037-1.517.079-.475.039-.951.091-1.422.165-.378.059-.749.164-1.125.238-.2.039-.4.054-.6.085-.139.022-.279.047-.415.082-.307.078-.616.151-.919.246-.39.123-.772.274-1.162.4a18.654,18.654,0,0,0-2.864,1.208c-.717.366-1.387.826-2.078,1.246-.18.109-.361.216-.534.335-.07.048-.171.1-.011.2.451.3.889.617,1.322.94.335.25.669.5.977.785.61.557,1.215,1.122,1.8,1.708.367.369.7.774,1.033,1.175s.673.819.977,1.252a2.94,2.94,0,0,1,.657,1.665,1.454,1.454,0,0,1-.62,1.258,1.3,1.3,0,0,1-.663.147,1.4,1.4,0,0,1-.519-.118,2.354,2.354,0,0,1-.406-.225c-.178-.11-.349-.229-.526-.341-.219-.138-.442-.27-.66-.41-.165-.105-.321-.224-.488-.324q-.453-.273-.916-.532c-.323-.181-.651-.355-.977-.531-.454-.245-.9-.506-1.364-.731-.541-.263-1.1-.5-1.647-.738-.32-.141-.645-.272-.967-.409-.3-.13-.6-.284-.913-.391a2.519,2.519,0,0,0-1.459-.174,1.392,1.392,0,0,0-.766.589c-.29.419-.531.873-.785,1.316-.181.316-.357.636-.522.961-.123.243-.218.5-.339.743s-.268.475-.389.72c-.1.2-.169.413-.263.615-.12.256-.256.5-.378.759-.15.316-.289.638-.438.955-.238.5-.485,1-.717,1.509-.1.221-.168.459-.263.683-.2.468-.415.928-.609,1.4-.24.581-.468,1.167-.7,1.753-.146.375-.292.751-.42,1.132q-.392,1.165-.763,2.338c-.144.451-.284.9-.408,1.362-.225.833-.441,1.669-.654,2.506-.13.512-.26,1.025-.365,1.543-.1.493-.167.993-.249,1.49s-.171.979-.242,1.471c-.043.293-.053.59-.085.884-.051.468-.112.934-.161,1.4-.024.231-.038.465-.041.7-.017,1.076-.065,2.154-.03,3.229a5.418,5.418,0,0,0,.564,2.354A3.588,3.588,0,0,0,31,48.316a2.668,2.668,0,0,0,1.088.514,2.832,2.832,0,0,0,1.162-.043,3.026,3.026,0,0,0,1.508-1.092,5.623,5.623,0,0,0,.679-1.116c.37-.72.7-1.461,1.072-2.178.181-.345.436-.651.645-.982a12.232,12.232,0,0,1,1.8-2.05,6.088,6.088,0,0,1,.621-.476c.255-.2.5-.406.766-.588a7.844,7.844,0,0,1,.745-.439c.361-.193.723-.389,1.1-.553.316-.138.652-.232.979-.348a3.355,3.355,0,0,1,.675-.235,3.789,3.789,0,0,1,1.532-.031,2.575,2.575,0,0,1,.668.264,1.84,1.84,0,0,1,.748.8,1.972,1.972,0,0,1,.162.584,1.447,1.447,0,0,1-.269.905c-.233.384-.494.752-.749,1.122-.281.408-.57.811-.854,1.218-.219.314-.432.631-.654.943-.156.219-.328.427-.48.649s-.278.451-.43.668c-.169.241-.357.469-.531.707-.12.163-.231.332-.344.5-.009.014-.006.036-.008.055.023,0,.052.013.069,0,.388-.235.772-.477,1.163-.709.337-.2.686-.38,1.018-.587.213-.133.4-.306.606-.453.241-.172.494-.328.732-.5.305-.225.6-.46.9-.7.183-.148.355-.309.532-.464.476-.416.962-.822,1.426-1.252q.625-.578,1.208-1.2c.44-.468.848-.967,1.288-1.435a8.39,8.39,0,0,1,.968-1.038,1.229,1.229,0,0,1,1.052-.289.782.782,0,0,1,.58,1.19c-.686,1.432-1.416,2.843-2.127,4.264a1.348,1.348,0,0,0-.064.194,1.289,1.289,0,0,0,.182-.112q.748-.648,1.492-1.3.559-.489,1.118-.98c.437-.382.875-.761,1.311-1.144.241-.211.463-.448.722-.634a4.439,4.439,0,0,1,1-.6,1.878,1.878,0,0,1,.75-.152,1.168,1.168,0,0,1,.939.717,1.954,1.954,0,0,1,.055.907,2.252,2.252,0,0,1-.3.743c-.144.279-.32.541-.479.812-.188.321-.372.644-.559.966-.013.022-.037.044-.037.065,0,.066.01.131.017.2.038-.037.077-.072.113-.11.466-.493.922-1,1.4-1.476.409-.41.832-.808,1.271-1.184.313-.269.669-.488,1-.741a3.35,3.35,0,0,1,1.147-.649,2.931,2.931,0,0,1,.748-.155.873.873,0,0,1,.848.53,1.132,1.132,0,0,1,.049.8,2.57,2.57,0,0,1-.445.885c-.27.348-.444.769-.681,1.145-.31.493-.649.968-.961,1.46-.208.329-.384.678-.588,1.011-.152.248-.331.479-.486.724-.25.4-.491.8-.737,1.195a.914.914,0,0,0-.068.091.19.19,0,0,0-.007.095c0,.008.037.021.051.016.172-.059.343-.118.513-.182.153-.058.307-.115.454-.186a8.987,8.987,0,0,0,.866-.446c.409-.257.808-.532,1.192-.824a10.957,10.957,0,0,0,.917-.792c.7-.667,1.389-1.343,2.078-2.02.537-.527,1.06-1.069,1.6-1.59.235-.225.5-.415.758-.619s.523-.436.8-.631a7.242,7.242,0,0,1,.718-.424c.231-.126.469-.24.707-.354a6.739,6.739,0,0,1,1.1-.395,3.548,3.548,0,0,1,.949-.066,1.561,1.561,0,0,1,1.576,1.631,1.117,1.117,0,0,1-.355.728c-.412.437-.88.822-1.273,1.275-.457.527-.859,1.1-1.28,1.657A15.806,15.806,0,0,0,70.8,46.426c-.1.2-.189.4-.279.6-.012.027-.009.088,0,.091a.2.2,0,0,0,.134.012c.333-.176.663-.361.994-.54.37-.2.753-.381,1.11-.6.395-.246.766-.529,1.147-.8.314-.221.637-.43.936-.67a20.28,20.28,0,0,0,2.325-2.086c.461-.5.931-1,1.376-1.52.244-.285.449-.6.665-.913.258-.37.513-.743.762-1.12.187-.285.361-.578.543-.866.025-.039.078-.105.088-.1a.4.4,0,0,1,.157.121,1.862,1.862,0,0,1,.235,1.344,1.529,1.529,0,0,1-.6,1.024c-.2.139-.323.28-.281.51a.752.752,0,0,0,.438.6,1.189,1.189,0,0,0,1.084-.133c.306-.146.583-.353.887-.505a1.876,1.876,0,0,1,.981-.1c.034,0,.065.051.107.078a.151.151,0,0,1,.01.071M27.335,5.569l1.743.082h.02q.854.082,1.708.164c.254.025.509.05.762.082q.3.038.594.093c.245.046.488.107.733.149.218.037.441.051.66.085.151.023.3.06.45.1.3.074.6.156.906.227.262.061.529.1.788.168s.489.166.737.24c.3.089.606.145.9.251.477.174.946.372,1.414.568.493.206.985.416,1.471.637a11.607,11.607,0,0,0,2.039.892A1.633,1.633,0,0,0,43.508,9.2c.313-.182.62-.376.931-.561.191-.114.382-.226.577-.332.332-.179.668-.353,1-.529l.362-.187c.193-.1.381-.21.578-.3s.432-.174.645-.267.437-.215.663-.3c.322-.127.651-.234.976-.354.188-.069.369-.157.559-.217.211-.067.432-.1.644-.171.312-.1.616-.224.929-.318s.627-.165.941-.241c.143-.035.288-.063.433-.088.185-.032.372-.054.556-.087.271-.049.541-.109.812-.157.2-.036.411-.059.617-.087.379-.053.759-.107,1.139-.158.136-.018.274-.027.411-.044.115-.015.229-.038.344-.057L56.3,4.6a.3.3,0,0,0-.035-.014c-.327-.082-.654-.163-.98-.246-.123-.031-.245-.064-.366-.1-.144-.045-.286-.1-.431-.142s-.306-.084-.459-.123l-.813-.2q-.379-.1-.757-.194c-.27-.07-.538-.148-.81-.213-.169-.04-.345-.052-.514-.092-.3-.072-.6-.168-.9-.233s-.635-.109-.952-.167c-.15-.028-.3-.065-.447-.1-.178-.045-.353-.106-.534-.139-.35-.063-.7-.1-1.054-.169s-.721-.168-1.083-.24c-.322-.064-.648-.113-.973-.165-.358-.057-.717-.111-1.075-.164-.379-.056-.757-.113-1.137-.163q-.659-.087-1.32-.164-.741-.086-1.484-.163-.854-.087-1.708-.163c-.376-.033-.753-.057-1.13-.082-.431-.029-.862-.062-1.293-.08C35.254,1.047,34.469,1,33.684,1c-2.017-.006-4.034-.042-6.049.076-.142.008-.286-.009-.428,0-.631.051-1.261.108-1.892.161-.349.029-.7.055-1.048.082l-.039,0c-.325.053-.649.116-.975.157s-.631.054-.945.086c-.2.02-.4.044-.6.082-.389.075-.775.172-1.165.24s-.784.112-1.177.167a.541.541,0,0,0-.053.018c-.191.048-.38.1-.573.142s-.372.053-.557.085c-.138.024-.275.056-.411.091-.177.047-.352.1-.529.151-.154.04-.312.068-.466.108-.27.07-.538.148-.807.219-.246.064-.495.118-.74.186s-.5.15-.744.223c-.213.062-.429.113-.639.182s-.4.158-.6.225-.417.109-.62.18c-.273.1-.539.211-.81.311-.313.116-.633.213-.942.338-.437.177-.867.372-1.3.561s-.887.384-1.324.59c-.489.231-.975.468-1.453.721-.267.141-.514.32-.771.479-.5.31-1.018.593-1.494.936A13.63,13.63,0,0,0,3.25,8.88a7.5,7.5,0,0,0-1.154,1.3,4.632,4.632,0,0,0-.722,1.279.929.929,0,0,0,.013.672.611.611,0,0,0,.974.245c.34-.272.672-.555,1.03-.8q.9-.62,1.83-1.2a17.089,17.089,0,0,1,1.6-.921C7.748,9.009,8.7,8.6,9.645,8.2c.387-.165.793-.288,1.192-.424.257-.088.519-.16.775-.247.22-.075.433-.175.655-.24.244-.072.5-.115.744-.176.308-.076.615-.157.923-.236.153-.04.306-.084.46-.122.18-.044.36-.088.541-.122s.373-.05.558-.085c.264-.049.526-.11.79-.161.19-.037.382-.062.572-.1.252-.047.5-.11.755-.146.279-.04.563-.049.843-.086.572-.076,1.142-.178,1.716-.239q1.025-.109,2.055-.164,1.217-.065,2.436-.082c.877-.014,1.755,0,2.674,0m17.046,36.48c.141-.184.278-.371.425-.55a.537.537,0,0,0-.057-.8,1.07,1.07,0,0,0-.76-.21,2.186,2.186,0,0,0-1.1.278c-.356.2-.7.423-1.045.654-.2.134-.371.3-.558.454a8.024,8.024,0,0,0-.7.562c-.61.616-1.207,1.247-1.8,1.882a7.506,7.506,0,0,0-.573.728c-.253.351-.5.706-.733,1.071-.108.171-.165.374-.26.554a.857.857,0,0,0-.022.727.938.938,0,0,0,1.2.456,6.654,6.654,0,0,0,.933-.568c.32-.236.61-.512.907-.777.226-.2.446-.412.664-.622.443-.426.9-.843,1.321-1.287.319-.333.575-.727.9-1.048.464-.452.809-1,1.245-1.5m-1-30.6a1.048,1.048,0,0,0-1.077-.021,6.574,6.574,0,0,0-1.468,1.059,7.432,7.432,0,0,0-.538.58.187.187,0,0,0,.084.3c.441.163.884.324,1.324.491.275.1.551.209.819.33s.536.272.806.4c.2.1.41.176.609.277q.519.262,1.03.542c.47.258.94.515,1.4.788.355.211.7.444,1.042.671.376.246.754.489,1.121.747a.541.541,0,0,0,.789-.317.952.952,0,0,0-.187-.733,10.05,10.05,0,0,0-.843-.938c-.334-.347-.672-.691-1.022-1.021-.371-.35-.754-.687-1.141-1.02s-.77-.65-1.166-.961c-.508-.4-1.027-.786-1.582-1.177M69.225,45.377c.187-.173.38-.34.559-.521.241-.243.475-.492.7-.746q.475-.524.938-1.059c.3-.351.607-.7.9-1.065.323-.4.642-.808.936-1.231a.48.48,0,0,0,0-.391c-.066-.159-.468-.243-.624-.156-.373.209-.75.412-1.111.64-.315.2-.591.464-.917.639a5.9,5.9,0,0,0-1.229.942A16.11,16.11,0,0,0,66.836,45.3c-.267.41-.54.816-.8,1.229a1.2,1.2,0,0,0-.171.37c-.037.167.078.275.216.352a.63.63,0,0,0,.549.015,3.886,3.886,0,0,0,.635-.379q.337-.221.663-.459c.192-.14.378-.289.563-.439C68.729,45.795,68.966,45.6,69.225,45.377Z" transform="translate(0 0)"/><path d="M908.4,474.727a1.7,1.7,0,0,1,.728.079,2,2,0,0,1,.988.7,1.484,1.484,0,0,1,.251.556,1.467,1.467,0,0,1,.082.41,1.185,1.185,0,0,1-.413.915.861.861,0,0,1-.508.2,1.585,1.585,0,0,1-.734-.082,1.982,1.982,0,0,1-1.2-1.12,1.225,1.225,0,0,1,.282-1.42A.675.675,0,0,1,908.4,474.727Z" transform="translate(-870.439 -455.327)"/><path d="M908.447,584.173a.662.662,0,0,1-.449-.526c0-.118,0-.236,0-.354a1.693,1.693,0,0,1,.506-1.148,3.575,3.575,0,0,1,.649-.564,2.13,2.13,0,0,1,.53-.184,1.5,1.5,0,0,1,.252-.08.836.836,0,0,1,.837.547,1.048,1.048,0,0,1,.079.292,1.568,1.568,0,0,1-.526,1.2,3.605,3.605,0,0,1-1.247.8A1.844,1.844,0,0,1,908.447,584.173Z" transform="translate(-870.925 -557.577)"/><path d="M999.773,539.809a.905.905,0,0,1,.738-.212c.22.1.475.13.705.216.3.111.588.251.884.373a1.343,1.343,0,0,1,.539.519.9.9,0,0,1-.359,1.3,1.462,1.462,0,0,1-.973-.057,5.286,5.286,0,0,0-.58-.174,2.009,2.009,0,0,1-.978-.673,1.18,1.18,0,0,1-.174-.933A.976.976,0,0,1,999.773,539.809Z" transform="translate(-958.74 -517.541)"/><path d="M978.578,655.579a4.184,4.184,0,0,1-.572-.289,2.063,2.063,0,0,1-.853-1.042.934.934,0,0,1,.438-1.077.849.849,0,0,1,.781-.069,3.323,3.323,0,0,0,.382.11,2.127,2.127,0,0,1,1.233,1.038.965.965,0,0,1,.048.807.847.847,0,0,1-.408.514,1.172,1.172,0,0,1-.948.008A.352.352,0,0,0,978.578,655.579Z" transform="translate(-937.219 -626.37)"/><path d="M989.832,464.918a6.536,6.536,0,0,1-.763.108.791.791,0,0,1-.732-.229.528.528,0,0,1-.089-.584,1.462,1.462,0,0,1,.956-.736,4.136,4.136,0,0,1,1.688-.245.361.361,0,0,1,.32.174.776.776,0,0,1-.325,1.138A5.027,5.027,0,0,1,989.832,464.918Z" transform="translate(-947.85 -444.314)"/></g></g></svg>