<?xml version="1.0" encoding="utf-8"?><!DOCTYPE svg PUBLIC "-//W3C//DTD SVG 1.1//EN" "http://www.w3.org/Graphics/SVG/1.1/DTD/svg11.dtd"><svg version="1.1" id="Contours" xmlns="http://www.w3.org/2000/svg" xmlns:xlink="http://www.w3.org/1999/xlink" x="0px" y="0px" width="2048.000000px" height="2048.000000px" viewBox="0.000000 -0.000000 2048.000000 1224.632202" enable-background="new 0 0 2048.000000 2048.000000" xml:space="preserve" stroke="black" fill="none" stroke-linecap='round' stroke-linejoin='round'><path class="selected"  fill="#000000" opacity="1.000000" stroke="none" 
 	d="
M2047.999999 1002.150268 C2046.695312 1003.204956 2045.026611 1003.726257 2044.144164 1004.859619 C2037.792968 1013.017151 2031.724731 1021.396057 2025.324951 1029.514160 C2018.697143 1037.921509 2011.730712 1046.061035 2005.042480 1054.421753 C2001.484374 1058.869507 1998.290161 1063.607178 1994.771484 1068.088257 C1990.490478 1073.540527 1986.080322 1078.893555 1981.647460 1084.223999 C1979.203857 1087.162598 1976.396484 1089.814941 1974.106445 1092.862060 C1967.969360 1101.028320 1962.259521 1109.524780 1955.932739 1117.536987 C1949.718627 1125.406738 1942.799072 1132.716186 1936.479614 1140.507324 C1931.123657 1147.110718 1926.171508 1154.042358 1921.096679 1160.870483 C1920.876220 1161.166992 1921.256469 1162.338257 1921.290405 1162.335327 C1924.324951 1162.072143 1927.394775 1161.943115 1930.371093 1161.348633 C1934.331787 1160.557617 1938.237670 1159.466431 1942.134155 1158.385498 C1948.854003 1156.520752 1955.574829 1154.650146 1962.246459 1152.621826 C1968.722778 1150.652832 1975.241699 1148.751587 1981.549072 1146.320679 C1987.239013 1144.127563 1992.655395 1141.230102 1998.216674 1138.696411 C2002.909789 1136.558227 2007.762817 1134.734009 2012.317626 1132.338501 C2017.673217 1129.521728 2022.821044 1126.300049 2027.982421 1123.129028 C2030.205444 1121.763306 2032.217285 1120.057129 2034.374389 1118.577881 C2034.671874 1118.373901 2035.409301 1118.419434 2035.664550 1118.653320 C2035.931396 1118.897827 2036.088745 1119.665161 2035.903076 1119.935425 C2034.660400 1121.744507 2033.455444 1123.612793 2031.976318 1125.220703 C2024.026489 1133.861816 2016.462524 1142.933105 2007.862670 1150.878784 C2000.111328 1158.040405 1991.472412 1164.349609 1982.718383 1170.287842 C1973.652221 1176.437500 1964.182128 1182.078613 1954.491332 1187.188599 C1948.545287 1190.324097 1941.925781 1192.274414 1935.470580 1194.321045 C1931.015869 1195.733520 1926.326782 1197.212280 1921.738647 1197.224243 C1913.267089 1197.246216 1905.167480 1195.543335 1898.844238 1188.836792 C1890.707641 1180.207031 1891.036254 1169.480469 1892.334838 1159.276489 C1893.303466 1151.665405 1896.200805 1143.741821 1900.251953 1137.204834 C1907.205200 1125.984497 1913.662353 1114.464844 1921.582641 1103.723144 C1930.817016 1091.199463 1940.967285 1079.747803 1952.017455 1068.989502 C1958.666259 1062.516601 1965.840454 1056.583984 1972.760742 1050.388550 C1973.235717 1049.963379 1973.560180 1049.370117 1973.954711 1048.854980 C1973.350829 1048.703491 1972.754394 1048.488647 1972.141235 1048.417480 C1971.483398 1048.341186 1970.806884 1048.358398 1970.143798 1048.406494 C1960.530883 1049.103638 1951.904174 1046.566894 1944.478637 1040.375854 C1941.522216 1037.910889 1938.876953 1038.605713 1936.233886 1040.679443 C1928.329223 1046.881103 1920.413452 1053.069702 1912.572753 1059.351684 C1905.002685 1065.416992 1897.531371 1071.605469 1889.994384 1077.712280 C1887.206420 1079.971313 1884.401855 1082.214844 1881.523681 1084.356689 C1871.299804 1091.964844 1860.949218 1099.405762 1850.823120 1107.141479 C1842.090331 1113.812744 1833.665405 1120.885498 1824.979858 1127.620483 C1817.443359 1133.464111 1809.642089 1138.966675 1802.118530 1144.826294 C1787.859496 1155.931518 1773.922119 1167.462036 1759.435058 1178.257568 C1752.371826 1183.520996 1744.658569 1188.134521 1736.696899 1191.892212 C1731.313476 1194.432983 1725.046874 1195.741943 1719.063354 1196.229980 C1708.438720 1197.096435 1699.937866 1192.204834 1693.258422 1184.128540 C1688.642944 1178.547729 1686.064086 1172.253296 1686.956054 1164.809204 C1687.124633 1163.403198 1686.723876 1161.928955 1686.585937 1160.486206 C1685.427612 1161.253784 1684.212402 1161.948364 1683.120239 1162.800415 C1673.858886 1170.026123 1664.769287 1177.482910 1655.324340 1184.458740 C1648.446777 1189.538330 1640.407226 1192.092285 1632.261962 1194.779297 C1626.445556 1196.698120 1621.030639 1195.841309 1615.461913 1196.354126 C1607.814208 1197.058350 1601.199951 1194.604736 1594.420043 1190.785889 C1589.114257 1187.797241 1583.769531 1184.945557 1580.161620 1180.293945 C1573.668945 1171.922851 1567.729125 1163.022095 1570.920410 1151.339600 C1571.236816 1150.181396 1570.445556 1148.720581 1570.168334 1147.400268 C1569.749633 1148.262939 1569.513671 1149.298950 1568.884765 1149.962158 C1558.604247 1160.802856 1548.236205 1171.560425 1537.968871 1182.413330 C1531.500976 1189.250122 1523.554321 1193.969726 1515.091186 1197.594604 C1509.604858 1199.944702 1503.560424 1201.180054 1497.647827 1202.276977 C1494.047973 1202.944946 1490.222778 1202.439819 1486.499633 1202.392456 C1477.357055 1202.276123 1469.800292 1198.006592 1462.348876 1193.300781 C1454.803710 1188.535767 1449.210327 1181.719604 1445.573120 1174.053467 C1442.119140 1166.773437 1440.549682 1158.143921 1444.710571 1150.359375 C1449.742309 1140.945312 1455.476806 1131.895996 1461.127807 1122.826294 C1466.946777 1113.487060 1472.885375 1104.214722 1479.042724 1095.095947 C1484.711059 1086.701538 1490.916015 1078.668579 1496.552368 1070.253784 C1501.014037 1063.592895 1504.828369 1056.501343 1509.199829 1049.776367 C1512.622192 1044.511719 1516.445190 1039.506470 1520.115844 1034.404419 C1521.710693 1032.187744 1523.397216 1030.036621 1524.959716 1027.798218 C1525.123779 1027.563232 1524.703979 1026.551758 1524.598388 1026.558716 C1524.020507 1026.596680 1523.320312 1026.682495 1522.907714 1027.037109 C1517.674438 1031.536011 1512.341552 1035.932739 1507.309570 1040.649170 C1495.396240 1051.815674 1483.589477 1063.096802 1471.821166 1074.416260 C1464.681030 1081.284058 1457.773803 1088.394531 1450.617797 1095.245483 C1438.059448 1107.268921 1425.388671 1119.174805 1412.768188 1131.133423 C1402.842895 1140.538330 1392.986083 1150.016846 1382.985229 1159.340942 C1367.681640 1173.609009 1352.552978 1188.085937 1336.771972 1201.809448 C1331.268798 1206.595093 1323.825073 1209.875488 1316.485961 1210.089722 C1309.276855 1210.300049 1302.013183 1207.412476 1297.476318 1201.185059 C1293.255126 1195.391235 1293.937621 1188.635132 1297.325195 1182.724731 C1303.833740 1171.369385 1310.862426 1160.310425 1317.744995 1149.171631 C1325.456542 1136.691162 1333.172973 1124.212402 1341.026000 1111.820801 C1346.025878 1103.931274 1351.476440 1096.323242 1356.353881 1088.361572 C1360.196288 1082.089355 1363.168090 1075.279175 1367.076904 1069.053589 C1371.953613 1061.286499 1377.416137 1053.888306 1382.557861 1046.285034 C1383.050537 1045.556518 1382.906616 1044.420654 1383.331054 1043.618042 C1384.276245 1041.830322 1385.394042 1040.133911 1386.441406 1038.400268 C1384.484252 1039.710449 1382.282592 1040.765747 1380.608764 1042.371460 C1368.700439 1053.796020 1356.880981 1065.313721 1345.070068 1076.839600 C1329.623535 1091.913818 1314.290038 1107.104858 1298.755859 1122.087891 C1288.318969 1132.154663 1277.492431 1141.817627 1267.065185 1151.893921 C1250.582763 1167.821533 1234.547851 1184.221069 1217.815063 1199.877319 C1208.307006 1208.773682 1198.256713 1217.387451 1185.107299 1220.740478 C1178.663818 1222.383545 1172.146362 1224.252197 1165.852416 1219.809326 C1160.240600 1215.848144 1157.903442 1209.080810 1159.415283 1202.396484 C1161.794067 1191.878662 1168.039184 1183.177490 1172.444091 1173.630127 C1177.488525 1162.695923 1183.517333 1152.219482 1188.978027 1141.472656 C1194.080932 1131.429932 1198.987182 1121.287476 1204.004272 1111.200806 C1207.314208 1104.546631 1210.652343 1097.906250 1214.033691 1091.288208 C1214.249389 1090.865967 1215.201782 1090.792480 1215.368041 1090.378540 C1215.693603 1089.568359 1215.706176 1088.632324 1215.848144 1087.748413 C1215.043456 1087.987671 1214.054199 1088.006226 1213.462524 1088.500488 C1207.603881 1093.393433 1201.871948 1098.438721 1195.985107 1103.296631 C1188.186401 1109.732178 1180.290405 1116.050171 1172.417846 1122.395996 C1167.616454 1126.266235 1162.897460 1130.253174 1157.929687 1133.899292 C1152.031616 1138.228027 1145.822509 1142.131836 1139.902221 1146.431885 C1133.678832 1150.952148 1127.793090 1155.947998 1121.475219 1160.325317 C1114.193359 1165.370605 1106.556030 1169.899414 1099.155517 1174.777222 C1092.397216 1179.231689 1085.846923 1184.006226 1079.027221 1188.361572 C1070.425048 1193.855102 1061.706787 1199.175171 1052.918212 1204.365967 C1045.891357 1208.516235 1038.740844 1212.466919 1031.544799 1216.318359 C1020.132995 1222.425903 1001.187866 1218.372192 992.477966 1208.492065 C988.051757 1203.471191 985.187133 1198.191284 985.945800 1191.313476 C986.048339 1190.383911 985.417663 1189.373291 985.126586 1188.400268 C984.593994 1189.057373 984.120605 1189.774902 983.519775 1190.361938 C977.852111 1195.900268 972.415100 1201.418213 964.700622 1204.644653 C958.462280 1207.253784 952.605102 1210.153442 945.674255 1210.481811 C940.098266 1210.745972 934.489929 1212.611084 929.015197 1212.195434 C920.708434 1211.564575 912.174560 1210.557495 904.335449 1207.927124 C892.592590 1203.987060 881.588134 1198.178467 873.275085 1188.410400 C868.468688 1182.762695 864.069274 1176.903931 861.971313 1169.631592 C861.835327 1169.160278 861.286804 1168.807983 860.930175 1168.400268 C860.620117 1168.854492 860.237304 1169.275268 860.011352 1169.768066 C858.020812 1174.109131 856.010681 1178.442139 854.096557 1182.817017 C849.255859 1193.881226 840.807739 1201.720337 831.115417 1208.377075 C820.526306 1215.649780 808.887145 1221.090332 796.311950 1223.195068 C780.546874 1225.833984 764.785827 1225.130371 749.653564 1218.626465 C731.183898 1210.688232 716.803893 1197.837891 705.159118 1181.852783 C701.064391 1176.232056 698.190673 1169.686645 695.045959 1163.419556 C692.169616 1157.687500 689.321288 1151.890747 687.150573 1145.873535 C685.778930 1142.071167 685.495544 1137.832031 685.039184 1133.753540 C684.232726 1126.545654 683.688659 1119.308716 682.959228 1112.091553 C682.899230 1111.497925 682.262939 1110.962646 681.894348 1110.400268 C681.262878 1110.866455 680.338439 1111.195434 680.046081 1111.820312 C677.631225 1116.982056 675.420654 1122.239990 672.976074 1127.386963 C670.416564 1132.775879 668.087219 1138.341186 664.907592 1143.353638 C659.235778 1152.294922 653.356079 1161.153809 646.884643 1169.522339 C641.915710 1175.947876 636.437194 1182.202759 630.237487 1187.403564 C619.474487 1196.432617 607.990234 1204.603149 596.763793 1213.074585 C596.045715 1213.616577 594.945312 1213.651977 594.022704 1213.922974 C594.478942 1213.118286 594.820495 1212.216309 595.408630 1211.523682 C603.177245 1202.373779 611.641235 1193.724121 618.580016 1183.986450 C624.907836 1175.106323 629.902892 1165.214966 634.917663 1155.476929 C640.607726 1144.427612 646.305908 1133.302490 650.813781 1121.747436 C655.018737 1110.968628 657.767761 1099.611572 660.964965 1088.453857 C663.147949 1080.835083 665.110717 1073.148193 666.970764 1065.443237 C669.096923 1056.635986 670.960327 1047.765381 673.011474 1038.939575 C674.952636 1030.587036 677.182556 1022.296570 678.912170 1013.901855 C679.971496 1008.760315 680.237487 1003.460266 681.023864 998.256164 C681.920715 992.321777 683.042541 986.421631 683.988586 980.494202 C685.038391 973.916687 685.894348 967.306824 687.028869 960.744629 C688.233825 953.775024 689.751342 946.859680 690.970397 939.892273 C691.792236 935.195801 692.354797 930.453125 692.995544 925.725952 C694.343566 915.780701 695.319457 905.769104 697.108215 895.904419 C698.577148 887.803650 701.181213 879.915649 702.953918 871.861145 C705.146484 861.899109 706.841430 851.827454 709.039916 841.866821 C711.830932 829.222046 714.784789 816.609924 717.896423 804.040100 C722.831664 784.103455 727.737182 764.154663 733.083862 744.326538 C736.180358 732.843079 740.073486 721.572388 743.684020 710.230102 C748.416870 695.361999 752.887390 680.398743 758.079650 665.691406 C765.722045 644.043640 773.637206 622.483093 781.926940 601.075439 C790.433105 579.108826 799.268371 557.260132 808.465759 535.574585 C813.938842 522.670227 820.420287 510.195129 826.386657 497.498108 C830.974304 487.735199 835.178222 477.780548 840.072814 468.176208 C846.174255 456.203796 852.832092 444.515594 859.207397 432.681915 C864.171813 423.467071 868.983703 414.169037 874.033630 405.001739 C876.951293 399.705200 880.272949 394.632996 883.293517 389.391083 C887.586547 381.940948 891.715515 374.396179 896.022094 366.954071 C898.290222 363.034576 900.828918 359.272613 903.161315 355.388977 C904.236328 353.599060 905.579284 352.227295 901.776245 351.239197 C893.573547 349.108154 885.700927 345.708252 877.499450 343.570953 C872.134887 342.172943 866.441650 341.958771 860.874084 341.448639 C857.899230 341.176086 854.877502 341.457306 851.879150 341.390137 C840.407165 341.133209 829.271362 343.110687 817.980651 345.074127 C805.995056 347.158447 794.488281 350.743530 783.841369 355.741394 C767.829955 363.257385 752.877502 372.876739 740.063354 385.614685 C728.543151 397.066376 719.132018 409.806305 711.653869 424.145874 C709.585266 428.112366 707.464477 432.694122 704.047302 435.174469 C697.873168 439.655762 684.081298 439.055145 677.063171 430.666656 C673.427368 426.320862 671.627197 421.041077 670.942016 415.298279 C669.624572 404.256439 673.022033 393.956695 677.238647 384.383270 C685.413268 365.823608 696.732543 349.201233 711.914611 335.338684 C725.135986 323.266388 739.308044 312.615509 755.750671 305.520843 C768.622009 299.967102 781.939575 295.423920 796.140075 294.397949 C805.197753 293.743500 814.289611 292.218628 823.302245 292.598328 C836.947997 293.173248 850.534667 295.103027 864.153137 296.386444 C872.036132 297.129333 879.925109 297.837128 887.824035 298.375458 C899.040710 299.139862 910.281494 300.440002 921.489562 300.242432 C940.515869 299.906952 958.993408 296.163147 976.515685 288.391571 C989.548705 282.611084 1000.384094 273.828064 1009.531188 263.121674 C1013.124084 258.916382 1015.580688 253.591171 1017.833984 248.459442 C1018.819396 246.215164 1018.581848 243.276565 1015.003417 241.797516 C995.651122 233.798569 976.539855 225.201065 957.069335 217.508652 C940.303893 210.884918 923.205993 205.089691 906.177001 199.152206 C899.749755 196.911240 892.960204 195.683868 886.589355 193.312942 C876.214355 189.451843 865.650817 186.546493 854.814147 184.268051 C845.120361 182.229904 835.740478 178.731445 826.077514 176.504455 C818.080932 174.661514 809.835693 173.927032 801.769775 172.347931 C793.029357 170.636780 784.392944 168.399948 775.664611 166.620254 C770.850768 165.638702 765.951537 165.047043 761.072936 164.417694 C752.829040 163.354156 744.571960 162.392517 736.318725 161.402435 C727.901183 160.392670 719.494506 159.269806 711.059936 158.429336 C696.623351 156.990723 682.169372 155.726303 667.720397 154.414108 C666.563354 154.309051 665.388427 154.400268 664.221801 154.400268 C634.889770 154.400268 605.555541 154.184387 576.226684 154.489746 C561.164855 154.646545 546.092040 155.438385 531.062499 156.490494 C518.251525 157.387283 505.451507 158.748032 492.727996 160.495895 C481.494201 162.039093 470.394531 164.534714 459.192993 166.346100 C453.185363 167.317612 447.052642 167.511383 441.041534 168.466324 C435.643707 169.323822 430.332794 170.732376 424.987731 171.916733 C421.327331 172.727798 417.697509 173.699448 414.012786 174.373657 C406.248107 175.794434 398.397827 176.799301 390.693328 178.481491 C384.038757 179.934402 377.538543 182.093094 370.967407 183.930069 C367.978576 184.765594 364.977020 185.556015 361.992156 186.405289 C357.372619 187.719650 352.768402 189.088043 348.146789 190.395019 C342.176879 192.083252 336.199554 193.745560 330.219695 195.398285 C297.891754 204.333145 266.611907 216.302689 235.470931 228.591217 C222.304092 233.786987 209.597762 240.167007 196.761489 246.178192 C184.751617 251.802368 172.638564 257.260651 160.948409 263.499298 C146.440246 271.241852 132.259948 279.608520 118.053565 287.903503 C108.365447 293.560303 98.730468 299.334228 89.337455 305.463043 C80.051269 311.522217 71.123618 318.128876 61.990783 324.425873 C56.439094 328.253693 50.798694 331.952942 45.194213 335.704071 C42.347354 337.609466 39.615405 339.729584 36.616870 341.357178 C27.966030 346.052734 20.722144 342.648895 13.464421 337.520569 C7.356164 333.204468 2.699437 328.278564 1.647331 320.597076 C1.586657 320.154083 0.896958 319.797211 0.250000 319.400268 C-0.000001 313.566925 -0.000001 307.733612 0.000000 301.650268 C0.666667 300.774048 1.908166 300.152679 1.913492 299.520874 C1.989384 290.518219 6.551987 282.912811 10.640700 275.636475 C17.535106 263.367218 25.575372 251.683090 33.807907 240.237808 C47.275485 221.514557 63.554504 205.346954 81.056297 190.378052 C86.187644 185.989319 90.854415 181.031219 96.163108 176.883087 C101.915931 172.387924 108.159477 168.518890 114.207252 164.403595 C124.884811 157.137848 135.419570 149.645737 146.317367 142.725983 C153.471496 138.183350 161.102233 134.372879 168.618438 130.422745 C183.757202 122.466606 198.832427 114.371101 214.190139 106.856842 C223.695220 102.206169 233.713882 98.615425 243.425720 94.374222 C253.847747 89.822876 264.009826 84.627258 274.597930 80.518341 C286.240020 76.000397 298.279693 72.517845 310.067748 68.361732 C318.928344 65.237732 327.584381 61.522152 336.486785 58.532329 C341.933471 56.703098 347.736053 55.960865 353.264922 54.341618 C359.033233 52.652244 364.593780 50.243954 370.375884 48.613621 C376.382293 46.920040 382.574829 45.897789 388.629119 44.358467 C392.517272 43.369884 396.286224 41.921223 400.139648 40.784096 C403.119537 39.904747 406.115386 39.021725 409.160766 38.433399 C416.588775 36.998424 424.098693 35.957249 431.484039 34.339405 C439.381378 32.609409 447.128173 30.190117 455.028533 28.476810 C459.996612 27.399414 465.153808 27.225958 470.175872 26.356485 C475.419189 25.448700 480.604370 24.202297 485.807739 23.070801 C486.242065 22.976355 486.604095 22.470785 487.029113 22.424127 C493.415801 21.723026 499.845001 21.309526 506.186797 20.328272 C511.898803 19.444469 517.516662 17.951967 523.174194 16.719255 C523.472167 16.654341 523.745788 16.438986 524.041992 16.410450 C531.097839 15.730680 538.182006 15.270075 545.205627 14.348040 C553.682189 13.235256 562.107543 11.731877 570.556457 10.406760 C570.881774 10.355740 571.223693 10.421833 571.555175 10.397125 C580.445983 9.734408 589.347595 9.188758 598.224243 8.371689 C611.515319 7.148287 624.780822 5.644010 638.074645 4.455061 C642.042907 4.100155 646.072570 4.499224 650.069213 4.383814 C671.960693 3.751669 693.978332 4.320395 715.710815 2.104643 C747.806518 -1.167697 779.899902 0.153452 811.898620 0.942738 C830.262145 1.395697 848.691284 1.776315 867.081909 2.439218 C879.979614 2.904126 892.868163 3.666188 905.753295 4.422741 C915.150573 4.974500 924.537292 5.710716 933.925598 6.407010 C942.485107 7.041835 951.276611 6.736490 959.528442 8.691544 C967.187377 10.506113 974.796142 9.363367 982.243225 10.560095 C994.816955 12.580645 1007.382507 13.893541 1020.103576 14.558754 C1030.924682 15.124615 1041.678954 17.027443 1052.453369 18.411825 C1062.407958 19.690859 1072.356201 21.024290 1082.296142 22.412796 C1091.418701 23.687132 1100.533569 25.020599 1109.638793 26.413965 C1117.929687 27.682718 1126.207885 29.036385 1134.482299 30.409126 C1142.270141 31.701134 1150.051513 33.034523 1157.825073 34.409668 C1165.113891 35.699032 1172.426635 36.891041 1179.659912 38.446369 C1188.040649 40.248455 1196.337524 42.437233 1204.688842 44.381531 C1207.900024 45.129166 1211.147338 45.744026 1214.401245 46.279781 C1219.098998 47.053276 1223.831542 47.618996 1228.523315 48.424351 C1232.698608 49.141056 1236.848998 50.014938 1240.991699 50.906685 C1246.185180 52.024681 1251.391235 53.108494 1256.532226 54.438148 C1260.871948 55.560577 1265.104492 57.091961 1269.426269 58.291817 C1272.433105 59.126617 1275.493041 59.799656 1278.561035 60.377212 C1282.600463 61.137684 1286.682128 61.673374 1290.724487 62.419868 C1293.799926 62.987778 1296.880004 63.597855 1299.891967 64.428284 C1306.312621 66.198502 1312.653564 68.265221 1319.096313 69.946037 C1325.438964 71.600769 1331.904296 72.784912 1338.246581 74.440864 C1344.537719 76.083511 1350.739379 78.067398 1356.986450 79.880859 C1359.964843 80.745460 1362.933227 81.663582 1365.948486 82.378708 C1371.878784 83.785225 1377.919799 84.785385 1383.766479 86.469269 C1391.626953 88.733223 1399.302001 91.634300 1407.139770 93.985039 C1414.868408 96.303055 1422.747436 98.120514 1430.470947 100.453911 C1435.775756 102.056557 1440.891235 104.275253 1446.158325 106.015755 C1451.007324 107.618057 1455.974243 108.861038 1460.837280 110.423836 C1466.270995 112.170090 1471.637817 114.123863 1477.049804 115.939423 C1481.588622 117.462082 1486.155273 118.902405 1490.701415 120.403419 C1497.591430 122.678238 1504.463500 125.008102 1511.364135 127.250046 C1516.803588 129.017242 1522.369262 130.437256 1527.709350 132.459228 C1535.601440 135.447540 1543.285156 138.984528 1551.165527 142.006439 C1558.937011 144.986648 1566.889648 147.492783 1574.676635 150.435196 C1582.428832 153.364517 1590.063842 156.602844 1597.769897 159.655929 C1601.898071 161.291458 1606.090820 162.765060 1610.213500 164.413895 C1616.050537 166.748321 1621.845336 169.187958 1627.666259 171.562714 C1634.913207 174.519180 1642.236938 177.299087 1649.397460 180.450943 C1654.876464 182.862701 1660.078124 185.900696 1665.538452 188.359497 C1672.978271 191.709610 1680.604736 194.644562 1688.046752 197.989883 C1699.992919 203.359863 1711.882568 208.858185 1723.742797 214.416046 C1738.540649 221.350525 1753.459716 228.059433 1767.985595 235.528335 C1776.670654 239.994034 1784.715331 245.572998 1789.240356 255.011871 C1792.094116 260.964569 1791.896850 266.436829 1788.198852 271.612701 C1783.412841 278.311188 1776.151977 279.154175 1770.184081 278.055206 C1754.661376 275.196686 1742.901489 265.408295 1730.588500 256.547333 C1702.095825 236.042877 1671.532470 219.091049 1639.679443 204.443787 C1630.450317 200.199890 1621.065551 196.260849 1611.597900 192.578461 C1600.707885 188.342972 1589.714355 184.346054 1578.632202 180.644958 C1573.034545 178.775482 1567.100463 177.939453 1561.395141 176.359314 C1555.137695 174.626236 1549.020751 172.375381 1542.742797 170.730499 C1538.483276 169.614471 1534.029785 169.262497 1529.703613 168.371506 C1524.813354 167.364380 1519.973388 166.115906 1515.102783 165.011002 C1511.136230 164.111206 1507.191894 163.016251 1503.175048 162.458130 C1496.814697 161.574371 1490.386108 161.190979 1484.015380 160.370682 C1474.869750 159.193085 1465.751708 157.800552 1456.617065 156.535538 C1455.483154 156.378494 1454.318847 156.439255 1453.168701 156.400375 C1433.444946 155.733551 1413.723876 154.681335 1393.996459 154.540893 C1381.611328 154.452713 1369.193847 155.458786 1356.832641 156.479919 C1345.187621 157.441894 1333.541992 158.711548 1322.000610 160.512527 C1312.742431 161.957230 1303.664916 164.525787 1294.458373 166.348953 C1289.625366 167.306061 1284.675903 167.659683 1279.800903 168.425491 C1276.389892 168.961349 1272.978393 169.584778 1269.633178 170.430542 C1262.103881 172.334106 1254.533569 174.138580 1247.131469 176.465546 C1237.569946 179.471344 1228.224731 183.164322 1218.665649 186.178757 C1194.352172 193.845917 1171.115356 204.224594 1148.525756 215.760895 C1130.953002 224.735123 1114.550537 236.002228 1097.639892 246.270019 C1093.239013 248.942139 1088.787597 251.549896 1084.552734 254.467590 C1082.832031 255.653137 1080.374633 256.825409 1084.293823 259.421722 C1095.333251 266.734955 1106.070556 274.525635 1116.682861 282.455048 C1124.876342 288.577179 1133.068847 294.790039 1140.611450 301.674927 C1155.563598 315.323120 1170.365356 329.165955 1184.646606 343.508423 C1193.644287 352.544647 1201.797973 362.457062 1209.940429 372.298920 C1218.204833 382.288086 1226.427856 392.366211 1233.870117 402.966309 C1242.437744 415.169159 1249.854370 428.130402 1249.970825 443.751923 C1250.066039 456.510071 1245.092162 467.354462 1234.793090 474.571503 C1230.566284 477.533356 1224.075805 477.939270 1218.559570 478.167206 C1214.355590 478.340881 1209.920532 476.788544 1205.855468 475.282562 C1202.339111 473.979828 1199.134033 471.766083 1195.908080 469.766907 C1191.560180 467.072510 1187.356567 464.146240 1183.031860 461.413299 C1177.670898 458.025513 1172.212890 454.790436 1166.865600 451.381714 C1162.829467 448.808868 1158.999145 445.904602 1154.903564 443.435791 C1147.499633 438.972778 1140.015869 434.636322 1132.473388 430.411438 C1124.551147 425.973907 1116.526000 421.719910 1108.536743 417.402496 C1097.417480 411.393555 1086.476684 405.015137 1075.116821 399.500854 C1061.868530 393.070038 1048.274291 387.346497 1034.784301 381.420837 C1026.938476 377.974518 1018.989196 374.764801 1011.111022 371.391235 C1003.656616 368.199097 996.405517 364.431457 988.757690 361.815002 C977.223937 357.869110 965.309997 354.376831 953.029296 357.543732 C945.008605 359.612091 938.771911 365.472626 934.261047 371.980255 C927.150634 382.237976 921.256164 393.350159 915.032775 404.207123 C910.593810 411.951019 906.287414 419.782165 902.246520 427.739258 C899.228942 433.681305 896.918029 439.980316 893.947204 445.948547 C890.971496 451.926392 887.372070 457.594360 884.412353 463.579346 C881.994811 468.468017 880.278015 473.699097 877.959594 478.641937 C875.021728 484.905579 871.679687 490.979004 868.711913 497.229401 C865.034240 504.975098 861.638427 512.854370 857.982360 520.610657 C852.164977 532.952270 846.098327 545.178039 840.412231 557.578979 C837.924865 563.003662 836.301208 568.818237 833.961486 574.317993 C829.088622 585.772339 823.801269 597.052795 819.050475 608.556030 C813.172668 622.788147 807.599059 637.147644 802.024352 651.502747 C798.454955 660.694153 794.874694 669.894226 791.732910 679.236267 C785.333251 698.265442 779.135558 717.364136 773.035034 736.491760 C769.508422 747.549255 766.085632 758.651977 763.053893 769.852783 C757.530761 790.258789 752.240112 810.729370 747.034545 831.219238 C743.847778 843.762390 740.665222 856.323852 738.096435 869.001831 C735.648742 881.082642 734.010375 893.327026 731.997009 905.496338 C730.010558 917.503357 727.817809 929.480041 726.068725 941.521301 C725.027221 948.690735 724.764099 955.969604 723.977661 963.180359 C722.728027 974.637146 721.229858 986.067444 720.043945 997.530273 C719.457397 1003.199341 719.125060 1008.912903 719.035583 1014.611999 C718.621581 1040.972534 717.441406 1067.363769 718.291198 1093.687378 C718.933593 1113.587891 722.737792 1133.369873 732.111144 1151.339477 C738.682617 1163.937378 747.292846 1174.957031 759.222167 1183.388672 C767.488464 1189.231201 776.259277 1194.458984 785.859619 1195.972534 C795.033019 1197.418945 804.664794 1197.425171 814.309081 1194.915893 C830.380004 1190.734619 841.252258 1179.782349 851.252136 1168.157837 C858.120971 1160.173096 863.016967 1150.313843 867.889343 1140.827515 C876.942199 1123.201538 884.971374 1105.046387 894.156677 1087.493652 C898.581848 1079.037231 904.835266 1071.556030 909.966308 1063.446777 C922.033203 1044.375976 938.302978 1029.004150 954.094726 1013.247192 C958.578063 1008.773804 964.227477 1005.476013 969.301147 1001.585632 C975.556518 996.789123 981.569213 991.645386 988.059570 987.195251 C993.867004 983.213379 1000.074584 979.770996 1006.296325 976.447876 C1015.144653 971.721863 1023.992797 966.923157 1033.169799 962.906982 C1040.917968 959.516113 1049.143310 957.220764 1057.140014 954.391357 C1062.661376 952.437744 1068.021362 949.305664 1073.684814 948.624573 C1086.088012 947.132751 1098.493163 944.249756 1111.199584 947.862183 C1116.955688 949.498718 1122.420532 951.166321 1127.560424 954.326965 C1135.533447 959.229675 1142.027831 965.480225 1145.877441 973.964966 C1147.903930 978.431518 1149.306152 983.399170 1149.856201 988.268677 C1150.774658 996.400574 1147.324462 1003.752441 1143.274169 1010.444824 C1137.576049 1019.860168 1131.178954 1028.859253 1124.930175 1037.932861 C1118.042358 1047.934570 1110.960571 1057.802490 1104.007446 1067.759643 C1098.643554 1075.441162 1093.421874 1083.222900 1087.996704 1090.860474 C1084.180663 1096.232666 1079.970580 1101.328003 1076.228149 1106.748291 C1072.546752 1112.080566 1069.423828 1117.800171 1065.707641 1123.106079 C1061.569824 1129.014282 1056.971801 1134.598022 1052.702758 1140.417358 C1049.775756 1144.407226 1047.056396 1148.550171 1044.285400 1152.652466 C1044.058105 1152.988892 1044.148071 1153.539673 1044.090576 1153.990845 C1044.659545 1154.028076 1045.376464 1154.309204 1045.775878 1154.066894 C1055.282104 1148.301269 1064.694579 1142.378906 1074.250732 1136.698364 C1082.498168 1131.795654 1091.056030 1127.401855 1099.181518 1122.312012 C1104.397704 1119.044434 1108.995971 1114.806885 1114.021606 1111.214477 C1119.926513 1106.993774 1126.124755 1103.177124 1131.958862 1098.864746 C1139.429565 1093.342773 1146.739379 1087.594849 1153.972289 1081.762939 C1158.453857 1078.149414 1162.659423 1074.193970 1166.997070 1070.401245 C1178.662475 1060.201538 1190.566772 1050.260132 1201.930297 1039.734619 C1212.127807 1030.289062 1222.004882 1020.459656 1231.526489 1010.332458 C1242.306274 998.866943 1252.294921 986.657349 1263.078857 975.195862 C1271.008422 966.768188 1277.309081 956.964844 1286.781249 949.762634 C1294.760620 943.695373 1303.416137 940.434082 1312.557739 942.692627 C1326.112792 946.041504 1333.987304 956.744690 1326.766845 971.828308 C1309.972289 1006.913269 1292.080932 1041.473144 1274.676879 1076.267212 C1273.939086 1077.742065 1273.629272 1079.431030 1273.119995 1081.020386 C1274.611694 1080.115356 1276.269287 1079.402100 1277.568969 1078.275757 C1289.783203 1067.690674 1301.941284 1057.041138 1314.105346 1046.398437 C1323.237792 1038.408081 1332.344238 1030.387817 1341.482055 1022.403442 C1352.179809 1013.056213 1362.919433 1003.756836 1373.600829 994.390869 C1379.504150 989.214661 1384.939819 983.407471 1391.282348 978.854248 C1399.020019 973.299255 1406.656249 967.603882 1415.885497 964.108642 C1422.001586 961.792480 1427.817382 960.153625 1434.253295 960.396728 C1443.270019 960.737366 1453.875976 968.748047 1457.258422 977.966553 C1460.029296 985.518188 1459.370849 992.998535 1458.613891 1000.192200 C1457.954833 1006.455872 1454.358764 1012.567993 1451.361694 1018.387207 C1447.842773 1025.220093 1443.525756 1031.638916 1439.634155 1038.283935 C1435.030395 1046.144897 1430.511840 1054.055786 1425.954711 1061.943970 C1425.643432 1062.482910 1425.046752 1063.015991 1425.050781 1063.548340 C1425.062744 1065.152710 1425.305663 1066.755371 1425.458495 1068.358765 C1426.381103 1067.463867 1427.338378 1066.601807 1428.220825 1065.668945 C1439.636474 1053.602051 1450.799316 1041.283325 1462.523681 1029.524536 C1472.535156 1019.484009 1482.899536 1009.746704 1493.656127 1000.514038 C1501.329345 993.927795 1510.044433 988.571838 1518.051513 982.353699 C1526.663696 975.665588 1535.482421 969.392944 1546.133178 966.459106 C1552.157714 964.799683 1558.343871 962.661865 1564.460327 962.652100 C1573.577514 962.637573 1580.810790 966.452942 1585.239868 975.637817 C1588.485595 982.368408 1588.025878 989.483337 1586.447387 995.186218 C1584.373290 1002.680054 1580.745971 1010.148254 1575.548828 1016.854980 C1568.938964 1025.384766 1564.677612 1035.692383 1558.879882 1044.903686 C1551.278930 1056.979614 1542.978393 1068.614380 1535.340087 1080.668091 C1530.234619 1088.724487 1525.927734 1097.283325 1520.944091 1105.421875 C1517.227661 1111.490967 1512.845825 1117.149170 1509.035278 1123.164673 C1502.904174 1132.843750 1497.006225 1142.670532 1490.988159 1152.421509 C1490.501830 1153.209595 1489.691772 1153.824341 1489.321655 1154.649536 C1489.017944 1155.326416 1489.057495 1156.206299 1489.143554 1156.974121 C1489.164428 1157.161011 1490.042236 1157.486450 1490.395507 1157.365845 C1494.601318 1155.929443 1498.807128 1154.485718 1502.962524 1152.911133 C1506.705200 1151.493042 1510.480346 1150.105347 1514.073486 1148.359253 C1521.224609 1144.883545 1528.566528 1141.657593 1535.272216 1137.441894 C1545.283325 1131.148071 1555.062866 1124.416504 1564.469360 1117.251953 C1572.324829 1111.268921 1579.775878 1104.682495 1586.927368 1097.861572 C1604.048339 1081.531860 1620.944824 1064.965088 1637.821655 1048.381470 C1650.967285 1035.463989 1663.780151 1022.203613 1677.077514 1009.446350 C1682.825195 1003.932068 1689.402221 999.278381 1695.635986 994.275513 C1702.128417 989.065124 1708.447997 983.601929 1715.243652 978.818359 C1720.794799 974.910950 1726.855346 971.693726 1732.838134 968.442932 C1738.507812 965.362122 1744.333129 962.558838 1750.155883 959.771118 C1758.831298 955.617554 1767.891845 952.712646 1777.191039 950.107300 C1785.057739 947.903198 1792.711181 948.579956 1800.445556 948.483826 C1822.508911 948.209595 1839.794189 966.411133 1839.042846 988.440308 C1838.792602 995.774597 1834.909423 1001.455505 1830.356445 1006.281433 C1820.266723 1016.976318 1808.791259 1026.417847 1799.183837 1037.499878 C1788.002441 1050.397217 1778.137329 1064.444214 1767.837524 1078.095459 C1754.084472 1096.323852 1744.322143 1116.865967 1734.024902 1137.085449 C1731.578246 1141.889404 1729.406005 1146.835205 1727.202026 1151.758179 C1726.911254 1152.407715 1726.991332 1153.915161 1727.225829 1153.988769 C1728.267822 1154.316650 1729.671386 1154.725708 1730.508911 1154.282715 C1738.675903 1149.963013 1746.739868 1145.449097 1754.864257 1141.047851 C1763.934204 1136.134277 1773.314453 1131.726562 1782.049804 1126.281006 C1791.715454 1120.255493 1800.819457 1113.325928 1810.139282 1106.749390 C1817.818481 1101.330688 1825.739623 1096.205810 1833.057128 1090.332275 C1852.963745 1074.353393 1872.709228 1058.157471 1889.994506 1039.245972 C1901.287597 1026.890747 1912.793090 1014.714783 1923.688476 1002.016785 C1929.676391 995.038147 1934.694946 987.212158 1939.974609 979.645508 C1946.302123 970.577637 1952.547241 961.448364 1958.629150 952.214661 C1963.219970 945.244385 1967.480834 938.057251 1971.936645 930.997009 C1972.539794 930.041321 1973.857910 928.414123 1974.102538 928.540039 C1975.524658 929.272217 1977.100341 930.192688 1977.940551 931.491760 C1984.490844 941.619568 1985.545043 953.156006 1983.704101 964.419434 C1982.104736 974.204895 1977.410888 983.601135 1969.003173 989.507812 C1964.160278 992.910217 1961.089233 996.359070 1962.125976 1001.988464 C1963.296630 1008.344421 1966.224975 1013.476746 1972.843383 1016.562439 C1982.668945 1021.143555 1991.087524 1017.280456 1999.390258 1013.316101 C2006.889160 1009.735535 2013.673583 1004.677124 2021.110717 1000.943054 C2028.648803 997.158264 2036.994995 998.001404 2045.129272 998.483154 C2045.954467 998.531982 2046.711425 999.733581 2047.749999 1000.400268 C2047.999999 1000.900268 2047.999999 1001.400268 2047.999999 1002.150268 M669.499999 136.400268 C683.732482 137.066940 697.964965 137.733688 712.197509 138.399322 C712.363769 138.407104 712.532104 138.386490 712.697204 138.402252 C726.643310 139.733444 740.591247 141.045685 754.534118 142.409943 C760.762756 143.019379 766.992309 143.645492 773.200683 144.428436 C778.071777 145.042740 782.932800 145.793030 787.758850 146.694290 C793.765319 147.815994 799.702209 149.325500 805.723266 150.349319 C811.071838 151.258789 816.513488 151.609756 821.877441 152.442902 C825.581176 153.018204 829.242004 153.915695 832.887756 154.808746 C840.292663 156.622528 847.649230 158.639374 855.073486 160.367355 C861.483398 161.859268 868.034301 162.786713 874.384948 164.480698 C880.488159 166.108673 886.368225 168.555603 892.430419 170.360290 C899.717285 172.529510 907.270202 173.914184 914.390075 176.510239 C926.074829 180.770752 937.550231 185.622238 949.027465 190.430847 C961.098266 195.488113 973.144714 200.617493 985.062438 206.022568 C1001.614501 213.529495 1017.065246 223.567963 1035.002807 227.869202 C1045.464599 230.377823 1055.885742 230.875946 1065.633666 225.221573 C1073.311279 220.768082 1080.819457 216.023285 1088.444213 211.477371 C1093.111083 208.695007 1097.799682 205.938995 1102.579101 203.357315 C1110.717529 198.961075 1118.931884 194.705078 1127.121459 190.403702 C1130.070312 188.854797 1133.046020 187.356888 1135.998535 185.815002 C1140.713867 183.352569 1145.330932 180.679230 1150.154662 178.452881 C1155.321777 176.068054 1160.725097 174.200668 1165.942138 171.917343 C1171.398071 169.529495 1176.649780 166.649582 1182.180175 164.463898 C1190.060424 161.349548 1198.131957 158.722443 1206.085204 155.788406 C1210.682128 154.092621 1215.127441 151.952469 1219.786132 150.467224 C1224.963012 148.816772 1230.378784 147.916885 1235.557250 146.270477 C1243.196288 143.841751 1250.639770 140.784088 1258.310668 138.473129 C1265.900268 136.186661 1273.655883 134.441894 1281.364501 132.565079 C1284.867919 131.712143 1288.419433 131.034256 1291.973876 130.420288 C1296.502441 129.638000 1301.074340 129.100296 1305.594848 128.277603 C1312.238647 127.068497 1318.835204 125.595932 1325.486694 124.434486 C1330.498290 123.559357 1335.564453 122.997322 1340.606201 122.293777 C1349.900878 120.996773 1359.191162 119.668350 1368.491943 118.416145 C1371.832763 117.966347 1375.207153 117.766167 1378.549804 117.326996 C1381.367431 116.956795 1384.161498 116.405495 1386.965942 115.934357 C1384.261596 114.873970 1381.557128 113.814041 1378.853149 112.752502 C1378.566650 112.640015 1378.293334 112.479866 1377.997924 112.405777 C1369.995849 110.398827 1361.986572 108.420463 1353.990600 106.389870 C1350.984130 105.626419 1347.985595 104.816078 1345.023071 103.899361 C1341.485229 102.804565 1338.016357 101.483444 1334.468505 100.424805 C1330.749267 99.315056 1326.980468 98.367264 1323.218261 97.407547 C1316.582763 95.714912 1309.933105 94.077850 1303.294677 92.397064 C1297.112914 90.831940 1290.931762 89.263443 1284.761596 87.653816 C1278.148071 85.928566 1271.578613 84.022133 1264.929931 82.448425 C1260.790283 81.468620 1256.486083 81.181106 1252.349975 80.189979 C1244.949096 78.416550 1237.677001 76.079254 1230.243774 74.474045 C1222.535400 72.809364 1214.687621 71.799072 1206.924926 70.371674 C1203.244140 69.694847 1199.605834 68.767868 1195.972900 67.855621 C1191.604247 66.758652 1187.315307 65.261223 1182.896972 64.463234 C1174.322509 62.914665 1165.635986 61.972992 1157.081298 60.334236 C1148.187499 58.630535 1139.429077 56.227669 1130.547241 54.451839 C1122.649658 52.872814 1114.672607 51.680672 1106.715331 50.414448 C1097.945312 49.018902 1089.161987 47.704658 1080.376586 46.408192 C1071.102050 45.039520 1061.828979 43.651859 1052.535522 42.421684 C1041.767944 40.996391 1030.986450 39.670536 1020.197509 38.417042 C1008.093200 37.010727 995.981689 35.656403 983.858947 34.420566 C969.921935 32.999786 955.975952 31.656376 942.020873 30.427574 C932.810912 29.616596 923.580444 29.029816 914.354614 28.410057 C903.801635 27.701145 893.251281 26.883947 882.686096 26.440151 C863.470519 25.632990 844.246337 24.554928 825.023132 24.500292 C775.632812 24.359915 726.224670 23.461924 676.868835 26.373354 C673.381408 26.579073 669.852233 26.162470 666.374999 26.441231 C650.921691 27.680094 635.482299 29.090950 620.033752 30.390783 C611.482116 31.110313 602.922363 31.733387 594.366332 32.401092 C594.045593 32.426124 593.722900 32.445618 593.405944 32.497326 C585.445678 33.795887 577.514892 35.326324 569.518188 36.334881 C561.833495 37.304092 554.071899 37.647007 546.361022 38.431580 C541.454101 38.930855 536.535400 39.512775 531.697204 40.447071 C522.162902 42.288204 512.726257 44.659901 503.164611 46.327228 C493.609527 47.993408 483.950591 49.063156 474.339660 50.412212 C473.891265 50.475147 473.476745 50.749309 473.030547 50.862530 C468.354553 52.049118 463.711028 53.401089 458.986663 54.348976 C454.477813 55.253616 449.867370 55.639633 445.332580 56.431190 C441.948638 57.021858 438.586486 57.791126 435.264282 58.668690 C430.922454 59.815597 426.651977 61.233025 422.308868 62.374496 C418.534850 63.366402 414.677551 64.040817 410.901367 65.025505 C404.294219 66.748413 397.735320 68.656219 391.129424 70.384186 C385.104766 71.960098 379.011779 73.281067 373.009216 74.933426 C366.894775 76.616577 360.865539 78.606682 354.777282 80.388138 C349.568786 81.912140 344.271331 83.153839 339.120574 84.847084 C334.151336 86.480682 329.377502 88.707703 324.410980 90.351120 C319.411620 92.005386 314.196411 93.020264 309.228057 94.752129 C302.543243 97.082321 296.037322 99.920380 289.394134 102.376816 C281.731109 105.210358 273.891631 107.593399 266.328369 110.663757 C255.630889 115.006508 245.100585 119.764000 234.527801 124.410194 C223.695342 129.170502 212.807647 133.819153 202.108993 138.866165 C190.133376 144.515594 178.223998 150.332397 166.518447 156.516769 C159.980117 159.971176 153.930938 164.346680 147.631622 168.259293 C135.399200 175.857056 122.695716 182.794937 111.031173 191.179993 C99.963004 199.136337 89.629150 208.220993 79.604820 217.493210 C69.181182 227.134766 59.377456 237.396820 51.342113 249.320343 C44.599101 259.326202 37.153552 268.598694 33.650001 280.655029 C31.897460 286.685791 31.628147 291.593628 33.970596 297.110107 C38.181121 307.025909 49.406856 309.849487 57.819896 303.115997 C66.135993 296.460113 74.281295 289.530212 83.037155 283.497955 C97.740806 273.368103 112.705573 263.591675 127.868820 254.162414 C140.657836 246.209579 153.471206 238.100616 167.010360 231.593246 C189.763656 220.657257 213.012313 210.728653 236.237029 200.808075 C245.717025 196.758652 255.652618 193.760559 265.429717 190.427307 C271.718017 188.283462 278.132690 186.510300 284.421081 184.366730 C289.813720 182.528549 295.016601 180.092316 300.469390 178.483047 C306.447723 176.718704 312.634002 175.670975 318.697479 174.180054 C326.247924 172.323486 333.768340 170.344070 341.295989 168.395538 C345.054901 167.422546 348.785400 166.335800 352.557098 165.417084 C356.958068 164.345047 361.364715 163.263763 365.815643 162.438370 C370.340240 161.599319 374.947784 161.207077 379.472106 160.366806 C385.943359 159.164902 392.359283 157.667328 398.823150 156.422516 C403.476684 155.526382 408.182739 154.905304 412.842346 154.037826 C419.016387 152.888458 425.130493 151.355575 431.339263 150.470764 C438.184905 149.495193 445.135131 149.267746 451.992553 148.358200 C466.014221 146.498459 479.961456 143.997055 494.018402 142.504623 C510.750244 140.728180 527.546508 139.382904 544.348815 138.491287 C564.216247 137.436996 584.115661 136.786621 604.009216 136.476181 C625.501342 136.140793 647.002685 136.400268 669.499999 136.400268 M1086.999999 1029.900268 C1090.464843 1025.400268 1093.817138 1020.807800 1097.420898 1016.421875 C1102.942382 1009.701782 1102.247924 1002.349182 1096.032836 996.799499 C1090.549926 991.903564 1083.721191 991.688171 1077.408447 991.665649 C1068.088867 991.632385 1058.772094 993.755676 1050.527221 998.475647 C1041.797607 1003.473022 1033.260742 1008.846985 1024.929443 1014.484497 C1020.085510 1017.762085 1015.848144 1021.927185 1011.270202 1025.608887 C1005.549865 1030.209106 999.227477 1034.195801 994.100524 1039.373535 C979.150756 1054.472046 964.529357 1069.904053 950.073730 1085.478638 C944.946472 1091.002808 940.465759 1097.168823 936.048461 1103.300171 C929.856628 1111.894287 923.774230 1120.586670 918.099609 1129.525513 C915.442993 1133.710327 914.060974 1138.682007 911.723754 1143.097412 C908.586975 1149.023071 909.007018 1155.269897 911.173950 1160.906128 C915.197021 1171.369873 930.629638 1177.166138 940.654907 1172.064819 C948.589843 1168.027100 956.357360 1163.430298 963.511596 1158.150024 C971.337219 1152.374390 978.448852 1145.613159 985.727722 1139.120117 C991.269653 1134.176392 996.639587 1129.035644 1001.992248 1123.885010 C1012.843383 1113.443481 1023.935302 1103.227295 1034.344848 1092.359741 C1042.152709 1084.208374 1048.434692 1074.552856 1056.499511 1066.700439 C1067.864013 1055.635132 1076.302245 1042.326050 1086.999999 1029.900268 M1062.499999 280.400268 C1053.802978 275.259521 1044.805663 275.307159 1036.123535 279.897247 C1022.966247 286.853302 1010.939697 295.548553 1000.160400 305.831634 C995.497619 310.279785 991.161865 315.103638 986.995605 320.026001 C984.756225 322.671814 986.026183 326.280762 989.058776 327.401764 C999.869323 331.397919 1010.702270 335.335113 1021.477661 339.424072 C1028.215454 341.980896 1034.966918 344.545410 1041.526122 347.517151 C1048.220092 350.549927 1054.645507 354.169861 1061.266113 357.372314 C1066.182617 359.750458 1071.315795 361.688415 1076.187499 364.149200 C1084.669189 368.433411 1093.085449 372.856811 1101.416259 377.427582 C1112.919921 383.739258 1124.441528 390.034729 1135.722656 396.729492 C1144.416870 401.889069 1152.780639 407.610351 1161.240234 413.159576 C1170.438232 419.193024 1179.709838 425.128418 1188.697997 431.463104 C1195.215942 436.056915 1206.650024 431.601807 1208.033447 423.695740 C1209.211303 416.965332 1207.081298 410.633148 1203.448120 405.744659 C1197.331664 397.515106 1189.933593 390.205261 1182.797119 382.775268 C1174.624877 374.267181 1166.338622 365.849365 1157.754394 357.761261 C1148.665405 349.197723 1139.290161 340.925537 1129.813964 332.789246 C1120.454223 324.752960 1110.955932 316.862701 1101.257934 309.239777 C1088.807861 299.453674 1076.097900 289.998199 1062.499999 280.400268 M1695.499999 1111.400268 C1700.074706 1107.158935 1704.798461 1103.065552 1709.187377 1098.639892 C1715.083618 1092.694336 1720.822021 1086.583862 1726.444946 1080.378052 C1734.197997 1071.821533 1741.859619 1063.178711 1749.412719 1054.445190 C1756.849243 1045.846558 1764.275024 1037.227905 1771.388061 1028.363159 C1779.289550 1018.515503 1787.109008 1008.572327 1794.310546 998.216247 C1795.858032 995.991150 1795.569702 991.418213 1794.412353 988.641601 C1792.791503 984.752869 1782.942138 982.686462 1779.132690 984.815979 C1769.993286 989.925049 1760.754272 994.895569 1751.915649 1000.490784 C1744.208251 1005.369690 1737.440307 1011.860596 1729.453857 1016.139892 C1718.070800 1022.239136 1708.372070 1030.725586 1699.342529 1039.223389 C1676.508056 1060.712891 1654.288696 1083.040527 1636.994628 1109.574219 C1630.451660 1119.612915 1623.764526 1129.558716 1617.325439 1139.663208 C1615.546752 1142.454712 1613.849365 1145.536743 1613.143676 1148.713989 C1612.234130 1152.808350 1615.059570 1155.446045 1618.440063 1157.334228 C1622.843017 1159.793701 1627.804321 1159.363647 1631.876220 1157.705933 C1637.405395 1155.454834 1642.365722 1151.733276 1647.425414 1148.421387 C1652.933959 1144.815552 1658.354614 1141.062988 1663.668823 1137.176269 C1668.370361 1133.737793 1672.924072 1130.090576 1677.450439 1126.421265 C1683.348144 1121.639892 1689.154418 1116.745850 1695.499999 1111.400268 z"/><path class="selected"  fill="#000000" opacity="1.000000" stroke="none" 
 	d="
M929.749999 475.150268 C936.115295 473.797119 941.685912 475.873291 947.580383 477.092682 C958.444213 479.340088 964.841796 487.175384 971.777038 494.141540 C975.074645 497.453857 976.250427 503.039673 977.912719 507.762634 C979.036926 510.956787 979.757385 514.422119 979.918212 517.801392 C980.350891 526.893555 975.922424 534.324036 969.792297 540.218506 C966.775451 543.119385 961.643737 544.848450 957.338500 545.133301 C951.362731 545.528564 944.609924 545.505676 939.348388 543.113586 C926.733825 537.378540 914.852477 529.948547 910.061096 515.689148 C905.769958 502.918457 906.078735 490.798035 916.980590 480.911590 C920.549072 477.675476 924.217590 474.718780 929.749999 475.150268 z"/><path class="selected"  fill="#000000" opacity="1.000000" stroke="none" 
 	d="
M918.999999 651.400268 C913.511169 650.013489 908.024413 643.287903 908.002441 638.514038 C907.989135 635.624756 908.007568 632.735351 907.998718 629.846008 C907.964416 618.638977 913.293884 609.613525 920.399902 601.723999 C925.075561 596.532715 930.517272 591.821472 936.305908 587.918518 C939.979980 585.441284 944.919006 584.838745 949.292846 583.401611 C951.346496 582.726868 953.360778 581.750671 955.469116 581.455444 C964.142455 580.241394 973.099914 586.887207 975.973266 594.839600 C976.813903 597.166260 977.794738 599.584656 977.921996 602.002563 C978.549804 613.931518 973.142150 623.121155 965.034912 631.495361 C956.323852 640.493225 945.700561 646.352722 934.498657 650.997925 C930.185241 652.786682 924.539001 651.361267 918.999999 651.400268 z"/><path class="selected"  fill="#000000" opacity="1.000000" stroke="none" 
 	d="
M1004.999999 545.400268 C1008.769348 542.055725 1018.416747 537.994751 1023.083007 540.196594 C1028.470825 542.738953 1034.718139 543.387085 1040.358032 545.486511 C1047.692504 548.216675 1054.769653 551.631226 1062.008300 554.628723 C1068.110107 557.155395 1071.476074 562.268433 1075.206542 567.331604 C1082.344970 577.020264 1077.880004 596.174499 1066.408447 599.052063 C1058.863281 600.944763 1050.459472 601.248047 1042.577758 597.650452 C1038.121581 595.616577 1033.084472 594.889038 1028.371826 593.376892 C1018.752136 590.289978 1010.459289 584.628967 1004.422851 576.896606 C999.474792 570.558472 998.812744 562.067993 1000.160583 554.049316 C1000.671630 551.009094 1002.999999 548.274292 1004.999999 545.400268 z"/><path class="selected"  fill="#000000" opacity="1.000000" stroke="none" 
 	d="
M1012.999999 715.400268 C1007.978027 713.066955 1003.189086 711.132385 998.988220 708.319458 C989.501830 701.967102 981.837402 693.774414 978.097656 682.799927 C974.912475 673.452881 979.712585 660.871704 988.831970 656.424133 C994.534912 653.642761 1001.131591 651.324585 1007.973571 654.733215 C1010.829528 656.155884 1014.268249 656.353577 1017.327453 657.433044 C1030.573974 662.107361 1041.189697 670.446716 1047.536132 682.852600 C1050.472289 688.592285 1051.473876 695.416626 1048.699829 702.625732 C1046.535888 708.249390 1043.749389 712.910400 1038.705078 715.222595 C1031.256591 718.636841 1023.265136 718.548767 1015.483642 715.430359 C1014.910522 715.200684 1014.165222 715.400268 1012.999999 715.400268 z"/><path class="selected"  fill="#000000" opacity="1.000000" stroke="none" 
 	d="
M1028.249999 504.650268 C1021.860229 505.733581 1015.740905 506.982574 1009.575012 507.286407 C1003.075256 507.606628 996.505615 507.635712 991.625854 501.666565 C987.979308 497.205872 987.226074 492.536438 989.439697 487.357788 C993.926452 476.861145 1003.198486 473.075256 1012.853454 469.333862 C1026.230590 464.150085 1040.035278 462.780853 1054.207397 463.344910 C1057.683471 463.483276 1060.107421 464.646576 1062.042236 467.604889 C1068.584594 477.608002 1064.840942 490.130218 1054.072143 495.485290 C1045.878906 499.559662 1037.365966 502.410248 1028.249999 504.650268 z"/></svg>